<mxfile host="Electron" agent="Mozilla/5.0 (X11; Linux x86_64) AppleWebKit/537.36 (KHTML, like Gecko) draw.io/24.7.5 Chrome/126.0.6478.183 Electron/31.3.0 Safari/537.36" version="24.7.5" pages="2">
  <diagram name="Page-1" id="E_puhSkt5OajQFt4tzql">
    <mxGraphModel dx="2214" dy="1943" grid="1" gridSize="10" guides="1" tooltips="1" connect="1" arrows="1" fold="1" page="1" pageScale="1" pageWidth="850" pageHeight="1100" math="0" shadow="0">
      <root>
        <mxCell id="0" />
        <mxCell id="1" parent="0" />
        <mxCell id="U9VfSi7_XvXAcXNltpBC-1" value="" style="shape=image;verticalLabelPosition=bottom;labelBackgroundColor=default;verticalAlign=top;aspect=fixed;imageAspect=0;image=data:image/png,iVBORw0KGgoAAAANSUhEUgAAA4UAAAJZCAYAAAAeW5BAAAAACXBIWXMAAA9hAAAPYQGoP6dpAAAgAElEQVR4Xuy9C7hVVbn//+IFL4hiKZThOSWpqB2QnWglXpHAgxxFTQW1TPBKGJYkJoioleUllKOhgtXxfsHLSR4hxbxg5SXA7V9F0+r8JRUtBQEVU/mtsWBs5p57rrXGWnOONccY87N8eIS9xnjn+36+Y801vnvMOUcnEVlT+sMLAhCAAAQgAAEIQAACEIAABApIoJMyhZcvWlbA0ikZAhCAAAQgAAEIQAACEIBAsQl8b/dugiks9higeghAAAIQgAAEIAABCECgwAQwhQUWn9IhAAEIQAACEIAABCAAAQhgChkDEIAABCAAAQhAAAIQgAAECkwAU1hg8SkdAhCAAAQgAAEIQAACEIAAppAxAAEIBEXgvAN3lJVvv9Whpi0+ta2ccvUsueyYfTu8t9fw4+XoydPafv73xa3ldqrPBQ/9ufxzHTf+UC51ElXtDhv/E7nxnNEdYh/3kxnS4ws7leP1/tpAObmUQ6XXgvvvbIsRzem2KWPlibtvKHc7eMy5Muik8eW/J+VZ6ec6xvdvfVQ+17tP1f46vzhLVUvLwUdKNM9oLep99dIcqtXw6Z5fqMkryj+a/zWnH1FRY61XrUHt8zhRtalxF39p3tX00WPRpG81/VT/+6/6UXk8PnbLtUZ66PFqcuz4uFLjTr2uLWm/+Pfz2t6O5qjjJ+Wtxv3Sv75Ucczp+A9cd0m5Lv3SY77aeDEdc7XGJO9DAAIQyJMApjBP+hwbAhCwRkBP7vSkTh0oadKoJ5lRsxQ1Ybq//lnUlOnJt5qE7rjnfuUJZ9xgRo9bjyncbqfd5KzbHy/zufSoveW1l54r/z16/KQ8o8eLtk8yhZX6q35qEqxeesIb5aQn10m1Rg1JtRq0KazGq1b+SRrXO6B8HCeqRvXlHeWr9Yka82pso+8laauOUU0/9b42hfqXFLX0qPX5qzauop8D/VnV8fTnytQUJnHR40Zx1e/rz130F0G1aqx3/NEeAhCAgCsEMIWuKEEeEIBApgRMJ/u6XdRsqcmgeikjFp9wRo1dvRNxU1OoVsjUaqee/OrVSPWzWnnGTaFebUsyhUl1qv61Jr5RMxxdYVV99Xu1ajA1hdXyr5WnyYDycZwkmcJ6f0ERNUbRz4DWpZZ+WZnCpGNX+2VD/L3ouFY5qRX5WiuFlUyhZhg1w/ExlMWYMxmXtIEABCDQbAKYwmYT53gQgEBTCJhO9uMrhXq1QZmvvy78oywpXUpa6RLS6GpaNaMUX9GoBEDHUOZRXSKnctCT9OjP1MpMtTyjl5VqI/n2a/9/+RLU+CpLUp2aSaX9a01MYa0aTEyhNiYqx3j+JubVZKD5OE6yNoVJK4W19MvKFJquQGvzF135j/4SQo2RXfcZnMoUxi9vTRr/mEKTTxVtIAABHwlgCn1UjZwhAIGaBKpN9uOdoxPN6MrD84/NLV8iF7+ENOkSvaT7uPQqV72mUK1kPPfIHOlZuvdvqx7blc2cmvRGL9erlmf0MjoVZ8ttusv2u7W0M4XV+sdNYfT+tahRjXLUtUYNY7Uaku4pjPPSHJLyb4YpdHWcJJnCpFXrJH0q3dcXv1+01hhMYworca32GUpa6VZxomN9wNEnGZnCJC76Z9FLqtXP4quKmMKap14aQAACnhLAFHoqHGlDAALVCZisACU9PCZ+L506SerLPqMredqsJU2m45dUNmIKly99rbxKqQyRevUddFg7U1gtz+hE+VPb/Vu5n7okTl0Oq1cKq/VPus9S1x41hbUu86tWg8lKoYpfKf9mmEJdn2vjRJvC+CdAX1pssmpdqbZo32r6pTGFJseOf4ZqrRSqmKamsNo9hVGjqflGf2mEKeSbBwIQCJUApjBUZakLAgUnYGIKdZv4fYNJ6PSlZNpM6Tb60lKTibjpPYVRM6RXK7Q5il4mVynP+AM3ok9OVKZQvZKewqp+rupMYteIKdQ5J9VgagqVOYjnr5+eWmuCHn2SZPRJplFuPo4TbQor3ftmMha1MYp/BqJ9q+mXhSmsduxK96rqvNUvLtQvZtRLr6Sry6qjv8RR70VXGGs9yCb+edK/HInex1trzBX8tEv5EICAxwQwhR6LR+oQgEBlAiaTfdVbGw61GvDnJx8pTzCTLieNX0KqjY6evJpMxOsxhXrVQx1HHfufS/7atlKo76+rlKfediA+8VexlCmcf9t1NeuMryRqTvWsFFaroR5TGDV30afEZjFB93GcZGkK458B9W/9FN1q+mVhCqsdO24KVVv9NNCk7SX0L21Um3f/8Wa7+4BVX/XLm2qf0aiB1CYw6ZLVLMYc520IQAACLhLAFLqoCjlBAAKpCZhO9nU7teqiJpPqwSzRB0xELxlVewxG73uKmrJKe8NVW9mLX8YWn7RGL1uMPqVR7wtXKc+hZ0zucG+VjqUm1Hqfv2p1RifhWoz4ZbRxkZIMY6UaKu1TWOmBIdH8TVcKTQaRj+PE1BQm6ZP0MJboZ+DAb5/ZbmuVSvplZQqTjp2Ut972Ir5PoWobXwWO7+Gox3m1z2il+NFVQnUsTKHJp4o2EICAjwQwhT6qRs4QgAAEIAABCJQJ6EtJk1YXQQQBCEAAAmYEMIVmnGgFAQhAAAIQgAAEIAABCEAgSAKYwiBlpSgIQAACEIAABCAAAQhAAAJmBDCFZpxoBQEIQAACEIAABCAAAQhAIEgCmMIgZaUoCEAAAhCAAAQgAAEIQAACZgTaTKFZc7NWG3XeRD76cLVZY1pBAAIQgAAEIAABCEAAAhCAQK4EOpWOvib6aPK02SinmWW8tPnQHwIQgAAEIAABCEAAAhCAAASSCVi5fBRTyHCDAAQgAAEIQAACEIAABCDgBwFMoR86kSUEIAABCEAAAhCAAAQgAAErBDCFVrASFAIQgAAEIAABCEAAAhCAgB8EMIV+6ESWEIAABCAAAQhAAAIQgAAErBDAFFrBSlAIQAACEIAABCAAAQhAAAJ+EMAU+qETWUIAAhCAAAQgAAEIQAACELBCAFNoBStBIQABCEAAAhCAAAQgAAEI+EEAU+iHTmQJAQhAAAIQgAAEIAABCEDACgFMoRWsBIUABCAAAQhAAAIQgAAEIOAHAUyhHzqRJQQgAAEIQAACEIAABCAAASsEMIVWsBIUAhCAAAQgAAEIQAACEICAHwQwhX7oRJYQgAAEIAABCEAAAhCAAASsEMAUWsFKUAhAAAIQgAAEIAABCEAAAn4QwBT6oRNZQgACEIAABCAAAQhAAAIQsEIAU2gFK0EhAAEIQAACEIAABCAAAQj4QQBT6IdOZAkBCEAAAhCAAAQgAAEIQMAKAUyhFawEhQAEIAABCEAAAhCAAAQg4AcBTKEfOpElBCAAAQhAAAIQgAAEIAABKwQwhVawEhQCEIAABCAAAQhAAAIQgIAfBDCFfuhElhCAAAQgAAEIQAACEIAABKwQwBRawUpQCEAAAhCAAAQgAAEIQAACfhDAFPqhE1lCAAIQgAAEIAABCEAAAhCwQgBTaAUrQSEAAQhAAAIQgAAEIAABCPhBAFPoh05kCQEIQAACEIAABCAAAQhAwAoBTKEVrASFAAQgAAEIQAACEIAABCDgBwFMoR86kSUEIAABCEAAAhCAAAQgAAErBDCFVrASFAIQgAAEIAABCEAAAhCAgB8EMIV+6ESWEIAABCAAAQhAAAIQgAAErBDAFFrBSlAIQAACEIAABCAAAQhAAAJ+EMAU+qETWUIAAhCAAAQgAAEIQAACELBCAFNoBStBIQABCEAAAhCAAAQgAAEI+EEAU+iHTmQJAQhAAAIQgAAEIAABCEDACgFMoRWsBIUABCAAAQhAAAIQgAAEIOAHAUyhHzqRJQQgAAEIQAACEIAABCAAASsEMIVWsBIUAhCAAAQgAAEIQAACEICAHwQwhX7oRJYQgAAEIAABCEAAAhCAAASsEMAUWsFKUAhAAAIQgAAEIAABCEAAAn4QwBT6oRNZQgACEIAABCAAAQhAAAIQsEIAU2gFK0EhAAEIQAACEIAABCAAAQj4QQBT6IdOZAkBCEAAAhCAAAQgAAEIQMAKAUyhFawEhQAEIAABCEAAAhCAAAQg4AcBTKEfOpElBCAAAQhAAAIQgAAEIAABKwQwhVawEhQCEIAABCAAAQhAAAIQgIAfBDCFfuhElhCAAAQgAAEIQAACEIAABKwQwBRawUpQCEAAAhCAAAQgAAEIQAACfhDAFPqhE1lCAAIQgAAEIAABCEAAAhCwQgBTaAUrQSEAAQhAAAIQgAAEIAABCPhBAFPoh05kCQEIQAACEIAABCAAAQhAwAoBTKEVrASFAAQgAAEIQAACEIAABCDgBwFMoR86kSUEIAABCEAAAhCAAAQgAAErBDCFVrASFAIQgAAEIAABCEAAAhCAgB8EMIV+6ESWEIAABCAAAQhAAAIQgAAErBDAFFrBSlAIQAACEIAABCAAAQhAAAJ+EMAU+qETWUIAAhCAAAQgAAEIQAACELBCAFNoBStBIQABCEAAAhCAAAQgAAEI+EEAU+iHTmQJAQhAAAIQgAAEIAABCEDACgFMoRWsBIUABCAAAQhAAAIQgAAEIOAHAUyhHzqRJQQgAAEIQAACEIAABCAAASsEMIVWsBIUAhCAAAQgAAEIQAACEICAHwQwhX7oRJYQgAAEIAABCEAAAhCAAASsEMAUWsFKUAhAAAIQgAAEIAABCEAAAn4QwBT6oRNZQgACEIAABCAAAQhAAAIQsEIAU2gFK0EhAAEIQAACEIAABCAAAQj4QQBT6IdOZAkBCEAAAhCAAAQgAAEIQMAKAUyhFawEhQAEIAABCEAAAhCAAAQg4AcBTKEfOpElBCAAAQhAAAIQgAAEIAABKwQwhVawEhQCEIAABCAAAQhAAAIQgIAfBDCFfuhElhCAAAQgAAEIQAACEIAABKwQwBRawUpQCEAAAhCAAAQgAAEIFI/A23//P1myuFVe//Nz8uGqd+X9d5fLv1Ytl/dK//9g5XJZVfr/e+8uk5Wl/2+x5VbSZctusllX9f+tpPMWW8kmpT+dt9iy/LPP7rib9OzdRz71uX8vHsgmV4wpbDJwDgcBCEAAAhCAAAQgAIEQCCz964vy98XPyhsvPSuvv9haNoObbraZ7N53d3lv5bsy/LDDpFu3bol/ttpqK1m+fLksW7Ys8c8999wjG23eVZ579hn54P335d926SPbfPE/5HMlk/i53v8hPb6wcwgInakBU+iMFCQCAQhAAAIQgAAEIAABtwm8/PR8ef6h38izpT+bbbqp9OvXT/ZoWftH/f2zn/1s5gW8/vrrsnDhQlm0aJH8/qkF0vrMQnn//Q9klwOGyX8MHCZf3GNA5scsWkBMYdEUp14IQAACEIAABCAAAQjUQeCvi/5YMoL3SWvJCG77qU/JUUceXvpzhOyyyy51RMm26QsvvCB33XWX3Hz7nfLPt9+R3vsPlT4H/Zd8YfevZHuggkTDFBZEaMqEAAQgAAEIQAACEICAKYE1n3wij94wTZ6469fStcvmcnTJBH7jiMOlT58+piGa1q61tbVsEG+9Y5aseO99aTn0eDngW2dIpw02aFoOvh8IU+i7guQPAQhAAAIQgAAEIACBDAn8/uZfyLxfXSkHHrC/HHHoMBkxYkSG0e2GuuWWW2TWvb+Rhx9+WPb55ndl32NPtXvAQKJjCgMRkjIgAAEIQAACEIAABCCQhsDv77heHvufaaX7A3eXSeecLXvttVeacLn2feKJJ+Sii38mf1qwUPY+fqx87Rsn5pqP6wfHFLquEPlBAAIQgAAEIAABCEDAIoHnHr5f5kw7X3bdsZecO+EHst9++1k8WnNDP/LII/Kjkjl88eW/yKDvTJbd9j+4uQl4cjRMoSdCkSYEIAABCEAAAhCAAASyJjDv2p/KE7N+Kb+aOUOGDh2adXhn4s2ePVtOGDVavjz8BBl86gRn8nIlEUyhK0qQBwQgAAEIQAACEIAABJpEYMU/35R7fzROtt5Y5H+uv0622267Jh05v8O89tprJWN4krz1YScZfu7Ppeunu+eXjGNHxhQ6JgjppCegBnXRXpcvWla0kjOrl/GSGcqmBiqibqaAOR+YkqIdBIpLYPHjD8qsi8bJySeeID++6MLCgZg0aZJcc/2vSsZwqvTe+6DC1Z9UMKaQYRAcATWo16xZE1xdlQrq1KmTMAlsXG7GS+Ps8uxZNN1MWXM+MCVFOwgUl8CC+++Q+y6ZINfPuE6GDx9eWBBqC4tRJ50sh4y/WFoO/kZhOejCMYWFHwLhASjaZJFJYLoxzHhJxy+v3kXTzZQz5wNTUrSDQDEJvPzUYzL9lEPXbtewzz7FhBCp+rHHHpP9999fTr3mXvli/2LzwBQW/uMQHoCiTRaZBKYbw4yXdPzy6l003Uw5cz4wJUU7CBSPwJt/+7Ncc9JQmf7f0+Soo44qHoAKFd9+++1y6pixcsqM2dL98zsWlgumsLDSh1u4yWSxb9++0traKl/96lflD3/4g9x8883Su3dvaWlp6fD36IatakPUkSNHWr88deHChW251NowlklgurFsMl7SHcGt3qGMl6LpZjqKQtHXtF7aQQACZgQ+WLVCrhk9VMae9G35/pnjzDoVqNUVV1whU6+5Xk4uGcNNu3QtUOXrS8UUFlL2sIs2mSyqiVP8vsOoEYsaREwh4yUkAqGYBpPPeUi6mdYSir6m9dIOAhAwI/Dr7x4tg/baXS756cVmHQrYavzZE+SBJxbJt664rYDVi2AKCyl72EXXmiyqSZN+/fjHP5Yf/vCHxiuFum/37t1l6tSp5VXDPn36lFcdlcm86KKLRD3RSr8GDx4sc+bMkR49esjYsWNl4sSJbW20KY3ms2DBAunXr5+wUti8MVprvDQvk+YcKRTTUDTdTEdHKPqa1ks7CECgNoEn771J/vrbW+WP8x+t3bjgLQbsu59sf9DRsuehxxaOBKawcJKHX7DJZFFNnKpdMmqyUqgvJb3wwgvLZk+9dFy1uqgNojJ655xzjvTs2VNmzJghQ4YMKbfVZnHYsGHln+v2yixiCps3Tk3GS/OysX+kUExD0XQzHRmh6GtaL+0gAIHqBD7+14fy0/9qkTtuvqH8QBVe1QmoB/Acdezx8oN7F8iGG3cuFC5MYaHkLkaxJpPFLE1hdHVPrfLplzZ26v3Zs2fL/Pnz24ygWmVUr/j9iXpFcejQodxT2KThajJempRKUw4Timkomm6mgyMUfU3rpR0EIFCdwGO3XCOd/rpQZt12C6gMCRwzYqT86/P9ZMAxJxv2CKMZpjAMHakiQsBksmjDFKoURo8eLTNnzmynhzKF6qVWCNXqoPr/0qVLRa80xsUbNWqUjBkzBlPYpFFtMl6alEpTDhOKaSiabqaDIxR9TeulHQQgUJ3Afx+7n0z/+SUyaNAgUBkSeOCBB+T0M8fL6Tc9YtgjjGbBmUJ16d2SFxbJq88tlDdebJUPViyX91csK/1/maxavkxWLn+n9GeZbLFVN+m61day2ZbdpEvp75ts0U023mIr+VzvPtJz191l+137lS8F5OUfAZPJog1TqE1e/L5A/W91TGX4lixZUjaHqv24cePKBjH+4vLR5o07k/HSvGzsHykU01A03UxHRij6mtZLOwhAoDKB/2t9Sn57yVnyfOsiMNVJYNc+u8vXx18q/96nf509/W3uvSlc88knsnDuXfJq65PyWskM/uX/WyBf7L2r7LHHHvLJ6vflsMMOk6233rrdn27dusmyZcvknXfeaffnnnvukY033UyeeuppeWnx87LDl1qkR+/d5fN995R+gw+XThts4K/SBcrcZLJo0xTqB8jobS+0KdT/Vvcy6ieaRh9Ao01l/F5HtqSwO3hNxovdDJobPRTTUDTdTEdJKPqa1ks7CECgMoHf/fpK2W71mzL9qmneYoo+q6GZRYwZe4a8uvG2csC3zmjmYXM9lrem8KU//k5af3t32RDuPWAfGXTQQPnKnv3ly1/+snTp0iU11FWrVsmf/vQnefrpp2X2bx+UP8x/TPqWjOHuXx8uO33lgNTxCWCPgMlksVFTqLLWK8jKvKl7ArXpU+9p46f+rh5AM23atLanjupLS+NbYURXpPVDa1gptDc+4pFNxkvzsrF/pFBMQ9F0Mx0ZoehrWi/tIACBygRu/N5IOfuUb3m9UX1eplBtaP/Ta34tx11+c2GGmFem8MP335PfXX+ZLLx/lnym+zYy8pijy3+2335764K9+uqrogbI/9x8q7z51j/kS4OPkINGfV86b7a59WNzgPoIFG2yyCSwvvGBKewkly9alg6aA72L9jk3Rc75wJQU7SAQPoHLj9xL5t57l+y66665FFttyy21ZdfcuXPLealba9RT2NVL/1Jc/V23iV5h1axCnn/+eTn40CNk3J1/bNYhcz+ON6bw0Zumy0MzL5XDDx8uZ5x+Wnkvt7xeasBe9Yvpcuddd8kBJ54l+x57al6pcNwEAkWbLDIJTPcxYLyk45dX76LpZsqZ84EpKdpBIHwCUwZ+Uf78wvOy7bbbNr1YdXtMtS239D7O0e24VJJJ/fIwhW+++abstMuuMvmhV5rOLq8DOm8KF9x/pzxSWh3cbecd5YLzJkr//u7c8PnUU0/JeRdcJC+89GfZ59vfl5aDj8xLR44bIVC0ySKTwHTDn/GSjl9evYummylnzgempGgHgfAJqPPkxx9/LBs0+ZkY+hkJ0dtl4ltuJT2UTynS0tLS7racvC4fVbmPnfwT6XXEmPAHyroKnTaFd15whrz36otyYckMHnLIIc6Kct9998nkkjncdPud5cjzrnQ2z6IkVrTJIpPAdCOb8ZKOX169XdEtOvmJ3wus7zHWvxFvBivOB82gzDEg4AeBvFYKTbbcSjKFixcvTty/We3tXOuhe1kr8tZbb5VXCs+b93LWoZ2N56Qp/OeSv8md558ue/1Hb/n19e33fHOWZCmxb48aLX9ofUGOPP9q+XTPz7ucatC5uTJZbBZkJoHpSDNe0vHLq7cruiX9RlwzUZ/N+IOlbPPifGCbMPEh4A+BvO4pNNlyy/WVQu4pzGicqy/rRh9ksPjxB+W2806TH5z1ffnhhLMzyqh5YX72s5/JxZdcKt+Y8gvpvfdBzTswR2oj4MpksZok0RUF1U49xbTRySOTwHSDvxnjResdfVJtI1lnMW5CGS9Z66bZVnr4gdIr+tAEfY+L/ln37t3L+4+qS5/0k4mjGuv26v6Z+fPnl9vaeIWirw02xIRASATuv+pH0u0zn5OvHnFCxbJ+deZIOffUfJ4+WmvLrUp7Oqt+6rkh6hyp7zfM455C9XDJS679Hxl52U0hDZuqtTi1UviXBX+Qq086RGbdeWd5f0FfX2q/wyOOPFJOv+4+2aHlq76W4W3eWU8WbYOottJgcmwmgSaUKrdpxnjJyhRGq2h03IQyXrLWLWoKo5MR/cuapIcfqElN9HKn+OWj+l6YefPmlaVTT9cbMmSIDBgwQCZOnJhu4FboHYq+VuAQFAIBEXj/3WUycf8dZLOuW8mQ086RAcec3KE6tU/h9v96S66als+tTdW23KpkCqO/gOvTp0+5pgkTJjT98lG1T+HrnbeVfb7JPoWpPjaNrBS++483ZPq3h8jFP75IvnXcsamO70Lnm266Sb5/zkQ57ZdzZMttPuNCSoXJod7Jop7IqUciz5y59nJlvV+ghpb0WGU9KVcnrdbW1vJKn2oXjaNWHdQEcNKkSeVQ+rHL0cmjWiVUL7XSsHTp0rp1YhJYN7J2HeodL3q/SR0kvrdktUtioqtQ0THWzHETynipV7daoyRu3KP/Vn3jDz/QvwXv1atX20p/JVOo+l988cXyzDPPlJ+s18jnvFb+0XNVo1fqmB6DdhCAgBsEZl85RR69ebpstHFn6VR6mIzaKk09EX+DDTcqJ/h/rU/J3EvOkhdaF7mRsEdZ7Npnd/n6+Evl3/u484BL2/icWSm8fszhctjAfeTCKefbrrlp8adMmSKzHnxMvv3fs5p2TA4kUu9kUU/klLlTkzZt9vTkvtJjlXW7+OReP1RCv5/02OUsLgNkEpjNaK9nvGjd9OpR9N8mpqLSGFNGrVnjBlOYPG6q6Zf08AP1EBn1NOyBAwfWNIXqAQmKuzqnnHDCCeXzjK1XKPra4kNcCIREQO3ffd6BO8qH768ql7XZlt1kTelpowd+e5zse9zp0nnTzWTayP3kmqmXyKBBg0Iq3WotDzzwgJx65nj5zk2PWD2Oa8GdMIX3/vQHsu2alXLHLeFdtzvy2OPktTVd5NCzf+aa9sHmU88kX0GI/3Zf/SxpwqeBxVcIoveJxR+dHP130sqDuk5evbinML/hWM94qXYZqIkpjN4XoceYuqSwmeMmFNNQj24mo8tEv+hnvZ6VQmUK1WWj6tWzZ8+2TZpN8qq3TSj61ls37f0loH7JtuaTj+WTkpn55JNPSn9Xf/S/Py6bHPXzT0o/W/v3te+tbbPu5x3eXxcjqe26GOo4a2Ou/X9bzLa/l36u20aPW8p3/fHX5tMul3Y5ro2xZs26/7erM17j2nra1d7GYl2OHRh8IuoyUsXw44/+1TYINuq8SXn1cL/jx8imW3SVjV99Vu649RZ/B0mTM//GMaVf5O3QIl89uuMluU1OpamHy90UqstGpwzaRV5//fXyZTWhvdRlQp/97Gdl8gMvcBlpk8Std7KYNNGPm8J46uoyUL1CgClskrCWDlPveIk/aruey0ejYwVTmE7QenWrdbRqplA99CDNPYXKFDbrgQmYwlpKN/7+elMSn+CvNy7rjcY687LOuHQ0OesNgO6z3pQkxW9vXNb3STI/60xUm3Fab1zWfLLW0Kw3Muv+HjdGbQZNGZ6IOYoasQoGTXNqy1EZmw5t1xlAlWPpvw022FA6bbihbFBaUS//v/Tvtp+pv2+4QenySPX/6M83KOMJg+AAACAASURBVP9b/VxdOrm+z7q/r3tvfZ/Yz0t9yjFV3w5tK/y83CcpfunnOu92sdYfo33+NXJcV9P6Pknx18a49Oh95N233igPbGUGlTnc79jTZdDJ48v3G378rw/lp//VInfcfIPsv//+jX8ACtLz4YcflqOPPV7G37tANiwZ6yK9cjeFc6+6UD6/8WqZftW0YLmrm1Vf+qCz/Od31t5XxssugXoni0krhdFVgHHjxiXeAxS/zFRV1cwVH02RSWC68VTveIkerdp9Z5VWhvVeS9EnszVz3IQyXtLoljRiaplC/fnWfaOrvvqeY2X69dNH9SWjup2Kr1YL1S8K45chpxvB7XurXC55+q0qqysJqx/llY7I6keV1ZWOxiVuSpJWVxLalI9ZYSWmgwnRJia6ohRdNYqvrhisIMVXgOLGpbSy07ZCtc5cJU7QtZkpT+I7xYzMWsOiDE07g1PuEzEFnaKmJNZWG4yYcenU1mdt3/YGKmKSIgZlbZ+k+JEY7YzXurbrTNB60xMzaG191huX9sYpIUdlrnTeTd5YPcvPW96xnvrfm+WeS86Rf63+QD76cHXpYTMnyaCTxkvXT3dvl9qT994k//fArfL7xx7NO2Xnj/+VAfvKjkOOkZZh/j/fpF7YuZrCDz94Xy44aGdZ+KenZKeddqo3d2/av/TSS9Kyx54y6YHF5eu7eTVO4INVK2TTLl2rBqh3shh/6mDSPYVjx44tPy1Qvxe97JOVwsb1tN0z6/GiVnumTZvW9kuC+OReTcj1yqF+II0aH+qlzEL8vkE9djCF9Y+Eej/n9R8h2x7xrSiUQbSxLYUaS+q321VXPyJGpm2FpGRoOq7ERFZo1k3825kcvdLSZkriKzFrV3bKBiFiXLShScwxyUSpGCVD085IRY1IhxWk9Xl3XNWJriitW5GK59iurvXmJdsRQTQIpCcwcd/Py/sr3pU9hh0jQ07/oWz9mZ4Vg/7yjKPkP7/ar/zQK17JBMafPUHmPblIjp96WyER5WoK/zDrVyKvPC2333SDNfiNPra90X6VCjn2+G/Kv77w5ar7yViDEFDgR2/6RekEuFz2P/47skmXLRIrq3eymLQ/WXxPnKTHKme1UqhXFFQxjexVGMrKj41hamO8qMn83Llz29KNjhV9iaB6Uz+FNm4Kdd/4SlOlf1dbcdTjsp5xE8p4qfdzbmN8mcbU4yL6CySbppCnj5oqQzsI+Etg4ZxZ8vJTj8kBJ5wh22y/Q81C1C9Jrx09VMadcqJ897vfrdm+aA2uuOIKueLa6+Wk62bXXHwIlU2upvDey86V//zSv8kPfvADa3wbNXeN9qtUiNrU/rfPvSpDv3eRtVqLEvjsvT5Tvml74InfSzSH9U4Wbewh10wtQpnk22KW9XixlWez4oYyXur9nDeLb97HCUXfvDlyfAi4TmDpXxZLjx1615Xmm3/7s0wvGcNrSrdsHXXUUXX1Dbmx2qj+1O+MlVNKhrD753cMudSqteVqCm848xg574xTMtmovtLeYfo36XoPuOhv8hWZ+OVces85Ta3RvePi1NWG9hdceY0c//NbCzvYsipcrf7MnjaldHnURqUb5j8qP3o5unJY72QRU5iVMm7GyXq8uFmleVahmIZ6P+fmhPxuGYq+fqtA9hBwl4BaXZx+yqGiHqiyzz77uJtokzJ77LHHyg/gOfWae+WL/YvNI1dTeOnw/vLg7Htll112SSV9tb3D4it+0Xt3opf06H2o9P1AWa8UPv/88zJk2GFy5l1PpaqVzmsJTNzvC/Le8nfKf99k8y3amcNz9u7Z0GWYvrJlElhbOcbLekahjBdMYfK4D0Xf2p9qWkAAAo0SWHD/HXLfJRNk5nXXyuGHH95oGO/73X333XLi6JPksLN/Kn0GH+l9PWkLyNUUqoOvXr1aOndO98jXais9UXOn2qlHi+tXtJ82hfqej6xN4celp5cN+Pp/yh8f+m1azei/jsCGG21UevTyR2081KOY1c9Wv7dK3n33XenatfoDaUIBGb3fMZSabNSRNF4+Kj2qu/QbBH6JYAO45ZiYQkyh5SFGeAgETWDx4w/K3T8aJ6eceEL5AWlFe/1w4iSZ+ctfyWHnTpXeex9UtPIT683VFGa1Uqgqq7R3WNzcxS8zVX2VEbRtCl944QX5+iGHyvdYKczkgzdp/16yatk/y7HUBq2lR9PJfsedLgeN+r6wUpgJ4qCCMF7WyxnKSlKIpjCLX0aGom9QJyCKgYCjBFb8802598dnyqc3XiO/mnmdbLfddo5mml1ar732mpww6iT5Z+l3woeWDGF8+47sjuRfpFxN4a/GHSMXjDtVDj300EzJJa0AqqfzxZ8W2cyVQnVP4Y+nXSsjLr8l01qLGEzdIzbn6h+X9+SJmkH9NNIQJ4vVdGYSWP1TwHhpzyeU8RLi5xxTWMRvNGqGQP4E5k6/WBbc/Sv55cwZMnTo0PwTspTB7Nmzy5eL9j/8BBl48tmWjuJv2FxN4ezLJ8rXd9s+9dNHq+0dFv2SjX/h9u3bV1pbW5uyUqiePjrvhVdlyDiePpr246KeJvlJaeNj9XAZtTIY35rC98livRPDUCb5acdFpf7NGi/6fKIfXmWrnrRxQxkvjX7O9edLP1RMb+cRvQw7unWE/uWh4q60Vf9W+5aqiZPae1K3TbqNoVJM0wejNaJ1KPo2Ujt9IACBxgk89/D98sB/T5FddtxBzjn7B7Lffvs1Hsyxno888oj86OKfyUuv/EUOGjNZdtv/YMcydCOdXE2h2qdww788LbfcmH6fwmp7h0X38tITN4VfXUOtNqJWX/C9evWSkSNHtn3Bq/cb2QOskqwjjjtePt5hD/YpTDnuH71pemmfwmWZ7lOYMqXMu2MKs0PazPGizhf17BeYXZX1RQrFNKQ1hfqhYopejx49ZNiwYTJjxgzRDyDTWkbf02ZO9a1lCivFrOfBaPUpu7Z1KPo2Ujt9IACB9AR+f8f18vsbp8keLf3khyVzuNdee6UPmlOEJ554omQGfyp/WrhI9v3mGbLnEd/OKRM/DpurKfzwg/flwkE7y4Knn5KddtrJD2INZPnSSy9Jyx79ZdIDL0rnTTdrIAJdNAG1+eqmXao/QMZkshjSagGTwMqfj6zGS61PYHRFSG9Cn/SzpHGn2umN7tVx1GrUgAEDZNKkSeXDqveUWcnqFcp4MfmcJzGL30aQ9EsYZeiivyyMmn3Fr5Yp1PeoR/vpmHEzGc2x3l8IJdUXir5ZjXfiQAACjRFQv1Sd/z9XyAEH7C/D/2uYjBgxorFAGfb6xz/+Idtss03NiOpc+r+/uU8efOh3sv+3zpCvjTytZh8aiORqCpUAc6+6UD6/8WqZXtpIM9TXmLFnyCurO8vgMWsnebzsEjCZLOrJVwirBUwC040nk/FicoTodjdJq0TRB1pFx53qF98vVf87vmplkketNqGMl0Z1q2QK49yUGR84cGD5ChITc5d0j3pSTGXwTR+MVktLTGEjhOgDAQiYEljzySfyu19fKQvvvUG6dtlMjj7yiPIWFury+zxe6pw8b968xEOr28HumHWX3DlrlqxY9b7sMfybsu/xY6XTBhvkkaqXx8zdFL77jzdkyqBd5PXXXy9fwhPaa+nSpfLZz35WJj/wgmy5zWdCK8/JekwmiyGtFoQyyc9rMJmMF5PctCns3bt3u3vNVN/4ylP0nrWomVRto/+utt2OSU4hm4ZGdUv67I8bN07UuTr+Slq5M10prBQzfoxKD0Yrur6N1k8/CEDADoG/LvqjtD74v/LiI7Nlm09tLcd848iyQUy717hptitWrJCtttpKli9f3rblmHqy/+13zpJZd90lb/3zbdntgGGy64GHyBd2/4ppWNpFCORuClUu9/70B9JDVsptN98UnDhHjzxWlsoWcujZPwuuNlcLMpkshrRagClMNxJNxovJEbSZU23jq0vqXub+/fu3rTxhCk2IVm/TqG7xz37UtE+cOLFtFU9fBpy06qtXerVBVP30/YZaW/2LgHjMV155pXwvuzah0XsMuXw0/bggAgQgYJ/Ay0/Pl2fn/UZe+N1vZPPNNi3vAb7nl1tk9913L/9dLYZk/VKX9F9zzTWy7777yuZbdpNnFi2U997/QPoOHCY7l8zgF/cYkPUhCxfPCVOoqP/yO0fIEQftI5MnTw5GhEmTz5f7HnpMvvnfdwVTkw+FmEwWQ1otwBSmG5Um48XkCKwUmlDKrk2juiWZQpVV9B7Q6OW90ffUJVNvvPFG+X5DZfb05b2qjb4vNG74dcXRmKYPRmuEFueDRqjRBwIQaJTA0r++KH9f/GzpT6u8/fKz8rcXWmWzzTaTvn13l/dXviuHHXaYdOvWLfGPXvlbtmyZJP25u7Sd2+ZbbFk2gG+8/pqUruWXDTbcSL4xaap8vm9/6fGFnRtNm34JBJwxheoy0qtPGCKXX3yRHHvssd6LpX7LfNY558op18/hstEmq2kyWQxptYBJYLoBZjJeTI5Qzz2FrBSaEK3eJivd6s0kugJYb99mtOd80AzKHAMCEKhG4O2//58sKZnE1//8nHy46l35cOXy0p93y0+PX/Xucnmv9GfViuWycvky2WLLrWSLrbrJZl23ks1LfzZV/y/9bKMua/+9ba9d5aU//k7+NPt2Wf3eStlo484ycNT3ZPCpExAhYwLOmEJV118W/EGuPukQmXXnneXfLPj6UhvVH3HkkXL6dffJDi1f9bUMb/M2mSyGtFrAJDDdUDUZLyZHSLo3UPfTlyImjTvuKTSh27FNVrrVe3RMYb3EaA8BCECgcQKrV62USQf0ko8+XN0WZONNNpULHnq5wz7VjR+FnoqAU6ZQJbT48QfljsmnyYTxZ6Xe1D4PiX9c2g/l0ssuk29M+YX03vugPFIo/DGbMVl0aWKIKUw35JsxXtJlmG3vUMZL0XQzHQWh6GtaL+0gAIGwCcy+corMv/W68iqhfrFaaEdz50yhKvOfS/4md55/uny1zy7yy5nZ7c9lB+H6qN8eNVqefHaxDJ98lXy65+dtH474FQg0Y7KIKQxn+DVjvLhEKxTTUDTdTMdQKPqa1ks7CEAgXAJqlXDi/juU7iPcoHTZ6Caly0+Xly8zVauGaruMCx/+C6uFGcrvpCnU9d15wRmyesmLcv6kiXLIIYdkWHa2oe677z6ZfMFF0uXfdpbhk67MNjjR6iZQtMkik8C6h0i7DoyXdPzy6l003Uw5cz4wJUU7CEDAdQJzp18s867/uQw+5ezyfYTqvH/5omXy6E2/kPuuOF8Gnngm9xZmKKLTplDVueD+O+WxX14mX9p5R5lcMofqse6uvJ566ik5r2QGF//5ZRlwwvek5eAjXUmt0HkUbbLIJDDdcGe8pOOXV++i6Ba/57QWb84HtQjxPgQg4AOBD1atkCfvuVH2Pfa0tnS1KdQ/ePSm6bLnYcfKpl26+lCS8zk6bwqjwj98/aVyRGmjzDGnnVreByWvl9pX6qpfTC9vlnnQ6LPkayNOzSsVjptAoCiTRV06k8B0HwPGSzp+efUuim6YwrxGGMeFAARcIxA3ha7l53s+3phCBfrD99+TB2deJs/9dpZ033YbOX7EMXLUUUfJ9ttvb12HV199VW6//Xa54ZZb5c23/iF9Bh8hB5z4fem82ebWj80B6iOQ1WRRbTje2toqgwcPljlz5tSXRBNbYwrTwc5qvKTLonm9QxkvprpF9xJUlPXnWW8ar/cXVO/pvQSrvaefIKv2LFTnhzWlfbPUK7rPYXTj+/iehknto1uU6GPrXOfOnSs6nskoCUVfk1ppAwEIFIsAptCu3l6ZwigKtWdJ6wP3yMI5s2TvAfvIwV8/SPbYYw/58pe/LF26dElNbdWqVfKnP/1Jnn76abn/tw/K4/Mfkz0PPlx2OWi47PSVA1LHJ4A9AqaTxVoZqMmVnsDVapvn+0wC09HParyky6J5vUMZL6a6RVfatEFUJky9WlpaRJm7Z555RqLbhVR7b/HixTJy5Mg2A6naqgdPDRs2TGbMmNG2ob06xjnnnCM9e/Ys/1xtWK9e6hdMSe31uSbpPUxh8z4fHAkCEHCXAKbQrjbemkKNRT19aOHcu+Rvzzwpb724SF5+doHsvMuusmfp3sPVpZVFtd/h1ltv3e5Pt27dZNmyZfLOO++0+6P2F9yktPL3ZOlewRdfeF52+FKLbLfL7rJ9nz2l3+DDpdMGG9hVg+iZEDCdLFY7WNJv/ZN+lrRqoNpFVx/UysSAAQNk0qRJ5UOq99QkMatXKJP8rHjUGyeL8VLvMfNsH8p4MdFNrbpFbzXQq3BRUxg1XOrqAHXf+pgxY8qGMem9gQMHlk2hXt2LxtTH0k8nVjrPnz+/zQhOnTq1LL3qH/2Fk24/dOjQ8nGjK4dcPprnp4VjQwACLhHAFNpVw3tTGMejvmhffX6hLHl+kbz552flg3eXyeoVy2Rl6f/vLS/9v/RnxfJ3pOtW3aRrt61lsy27yealP5t17Sablv7ffcf/kO136yc9S2YwagLsykD0LAmYTBZNjhedjFVaCUhaNVD99CVq2jTqf+uViixXIEOZ5JtoYqNNVuPFRm42YoYyXkx1Gz16tMycObMdyqgpjBqwuClMei9uCvVnPPqZjsZRK4RqdVD9f+nSpW0rknFt1S+LdOy4YVRmcsSIEUbDIRR9jYqlEQQgUCgCmEK7cgdnCu3iIroPBEwni7Vq0aawd+/eHX57r3+z36tXr3arBipm/Df70X8nrSrUyqPW+0wCaxGq/n5W4yVdFs3rHcp4MdEtekmoWsWrtVIYX7GLrhRW+sxXWymcOHFi+XygDN+SJUvK5lDlNG7cuLJBjL+SYrFS2LzPBkeCAATcJoAptKsPptAuX6LnQMBksmiSlp6Mqbbxy730SkB81QBTaELWrTZZjRe3qqqcTRFNoV550w+Piq4Uxlf1a72nrw6IriJWupJAGVF9zCSDqUyjNq7Rh9OofspA6isLuKfQl08XeUIAAjYJYApt0pXyPpCdSodYozaDzOqFaFmRJE4jBLKa5LNS2Ah9//pkNV58qbxIplBpok2Z+rt6uui0adNEPRFU37+nTKF6wqd6afOlV+yS3ouvPmrdk+45Vu/py1fjl4xH2+unnsZjqYfgqNeECRO4fNSXDxh5QgAC1gjgL6yhLQfGFNrlS/QcCGQ1ya/nnsJqD4bg8tEcBkEdh8xqvNRxyFybFs0UVoJd7VJuG5d5N0v0UPRtFi+OAwEI+EMAU2hXK0yhXb5Ez4FAVpP8pHsDdTl6RSFp1YB7CnMQPcUhsxovKVJoatdQTENa3TCFTR12HAwCEIBAagKYwtQIqwbAFNrlS/QcCKSdLOaQcqpDhjLJTwUhRWfGSwp4OXYtmm6mqDkfmJKiHQQg4BsBTKFdxTCFdvkSPQcCRZssMglMN8gYL+n45dW7aLqZcuZ8YEqKdhCAgG8EMIV2FcMU2uVL9BwIFG2yyCQw3SBjvKTjl1fvoulmypnzgSkp2kEAAr4RwBTaVQxTaJcv0XMgULTJIpPAdIOM8ZKOX169i6abKWfOB6akaAcBCPhGAFNoVzFMoV2+RM+BgBrURXtluaVM0dgxXvxUHFOYrBum0M/xTNYQgEBtApjC2ozStMAUpqFHXwhAAAINEuDLrUFw67phCjGF6UYQvSEAAd8I8L1pVzFMoV2+RIcABCCQSIAvt3QDA1OIKUw3gugNAQj4RoDvTbuKYQrt8iU6BCAAAUyhhTGAKcQUWhhWhIQABBwmgCm0K05VU6je3Gv48XL05Gly25Sx8sTdN4i+dyn+72iaiGZXNKJDAAL+E+A8mU5DTCGmMN0IojcEIOAbAb437SqGKbTLl+gQgAAEWCm0MAYwhZhCC8OKkBCAgMMEMIV2xcEU2uVLdAhAAAKYQgtjAFOIKbQwrAgJAQg4TABTaFccTKFdvkSHAAQggCm0MAYwhZhCC8OKkBCAgMMEMIV2xcEU2uVLdAhAAAKYQgtjAFOIKbQwrAgJAQg4TABTaFecmqaw1uGTNs1GtFrUeB8CECg6Ac6T6UaAS6ZwxYoV0rVr13QFZdSbzeszAkkYCEDAOQJ8b9qVBFNoly/RIQABCLBSaGEMqC8vXskEkn5ZCysIQAACvhPAFNpVsKYpZEsKuwIQHQIQKCYBvtzC0H31qpVy/qCd5fwHXpRNumwRRlFUAQEIQMBBAnxv2hUFU2iXL9EhAAEIsFIY8BiYfeUUeeTGq2XgiWfK4FMnBFwppUEAAhDIlwCm0C5/TKFdvkSHAAQggCkMdAyoVcJJB/SSjz5cLRtvsqlc8NDLrBYGqjVlQQAC+RPAFNrVAFNoly/RIQABCGAKAx0DapVw/q3Xyer3VspGG3eWgaO+x2phoFpTFgQgkD8BTKFdDTCFdvkSHQIQgACmMMAxEF0l1OWxWhig0JQEAQg4QwBTaFeKmqaw1uHZkqIWId6HAAQg0JEAX25+j4roKqGuhNVCvzUlewhAwG0CfG/a1QdTaJcv0SEAAQiwUhjYGFCrhBP330E22HCD0mWjm8j7K5bLZl23Kt9buOaTT+TCh//CvYWBaU45EIBA/gQwhXY1qGkK9ZYU9aSBaPXQoi0EIFBEApwn/VV97vSLZd71P5fBp5xdvo9Qa/noTb+Q+644nyeR+istmUMAAg4T4HvTrjg1TaE+fD2b4SKaXdGIDgEI+E+A86SfGn6waoU8ec+Nsu+xp7UVENfy0Zumy56HHSubdunqZ5FkDQEIQMBBAnxv2hWlqilUh75tylh54u4bylmYrhoiml3RiA4BCPhPgPOk/xrqCtAyHC2pBAIQcJcA51q72tQ0hdEvvaRUeNCMXYGIDgEIhEmAL7dwdEXLcLSkEghAwF0CnGvtamNkCv++uFUuO2bfxEwwhXYFIjoEIBAmAb7cwtEVLcPRkkogAAF3CXCutatNTVN47elHyOLfzytnweWjdsUgOgQgUBwCfLmFozVahqMllUAAAu4S4FxrVxseNGOXL9EhAAEIJBLgyy2cgYGW4WhJJRCAgLsEONfa1aamKTRdHYymiWh2RSM6BCDgPwHOk/5rqCtAy3C0pBIIQMBdApxr7WpT8/JRdfjzDtxRVr79VrtMqm1RgWh2RSM6BCDgPwHOk/5riCkMR0MqgQAE3CfA96ZdjaqawmoPmFFpHfeTGdJy8JEdMkQ0u6IRHQIQ8J8A50n/NcQUhqMhlUAAAu4T4HvTrkZVTeGlR+0tr730XAfz98B1l8j9V/1ItttpNznr9scxhXY1IjoEIBAgAb7cwhEVLcPRkkogAAF3CXCutatNzXsKe39toJx89awOWeinkrIlhV2BiA4BCIRJgC+3cHRFy3C0pBIIQMBdApxr7WqDKbTLl+gQgAAEEgnw5RbOwEDLcLSkEghAwF0CnGvtamN0+ejBY86VQSeNb8uEy0ftikJ0CEAgfAJ8uYWjMVqGoyWVQAAC7hLgXGtXm6qmcMH9d8qN54yumAEPmrErDtEhAIFwCfDlFo62aBmOllQCAQi4S4BzrV1tjLakUI3iL7aksCsM0SEAgbAJ8OUWjr5oGY6WVAIBCLhLgHOtXW2MTGG9KSBavcRoDwEIFI0A58lwFEfLcLSkEghAwF0CnGvtatOwKbxtylh54u4bhKeP2hWI6BCAQJgE+HILR1e0DEdLKoEABNwlwLnWrjaYQrt8iQ4BCEAgkQBfbuEMDLQMR0sqgQAE3CXAudauNphCu3yJDgEIQABTGPgYYKISuMCUBwEIOEGAc61dGTCFdvkSHQIQgACmMPAxwEQlcIEpDwIQcIIA51q7MlQ1hUlPHY2nwz2FdgUiOgQgECYBvtzC0RUtw9GSSiAAAXcJcK61qw2m0C5fokMAAhBgpTDwMcBEJXCBKQ8CEHCCAOdauzI0fPlotbQQza5oRIcABPwnwHnSfw11BWgZjpZUAgEIuEuAc61dbWqawvMO3FFWvv1WOYu9hh8vR0+eVjMjRKuJiAYQgEDBCXCeDGcAoGU4WlIJBCDgLgHOtXa1qWoKLz1qb3ntpefaZXDwmHNl0Enjq2aFaHZFIzoEIOA/Ac6T/mvISmE4GlIJBCDgPgG+N+1qVPOewu122k3Ouv1x+fviVrnsmH2l99cGyslXz8IU2tWF6BCAQOAE+HILR2C0DEdLKoEABNwlwLnWrjY1TWH0klF1KWnP3n0whXY1IToEIFAAAny5hSMyWoajJZVAAALuEuBca1cbTKFdvkSHAAQgkEiAL7dwBgZahqMllUAAAu4S4FxrV5uaprDW4dmnsBYh3ocABCDQkQBfbuGMCrQMR0sqgQAE3CXAudauNphCu3yJDgEIQICVwsDHABOVwAWmPAhAwAkCnGvtylBzS4pGDo9ojVCjDwQgUCQCnCfDURstw9GSSiAAAXcJcK61qw0rhXb5Eh0CEIAAK4WBjwEmKoELTHkQgIATBDjX2pUBU2iXL9EhAAEIYAoDHwNMVAIXmPIgAAEnCHCutStDXaYw6aEySekhml3RiA4BCPhPgPOk/xrqCtAyHC2pBAIQcJcA51q72hjdU6j2J1z59lsdMjl4zLky6KTxHX6OaHZFIzoEIOA/Ac6T/muIKQxHQyqBAATcJ8D3pl2NjExhPIWoSWRLCrsCER0CEAiTAF9u4eiKluFoSSUQgIC7BDjX2tXGyBSqRkmvvYYfL0dPnsZKoV2NiA4BCARIgC+3cERFy3C0pBIIQMBdApxr7WpT1z2F37/1Uflc7z41M0K0mohoAAEIFJwA58lwBgBahqMllUAAAu4S4FxrV5u6TGFSKlw+alcgokMAAmES4MstHF3RMhwtqQQCEHCXAOdau9pgCu3yJToEIACBRAJ8uYUzMNAyHC2pBAIQcJcA51q72tQ0hfq+wdumjJUn7r5B9Mpg/N/RNBHNrmhEhwAE/CfAV0yN3wAAIABJREFUedJ/DXUFaBmOllQCAQi4S4BzrV1tMIV2+RIdAhCAACuFgY8BJiqBC0x5EICAEwQ419qVAVNoly/RIQABCGAKAx8DTFQCF5jyIAABJwhwrrUrA6bQLl+iQwACEMAUBj4GmKgELjDlQQACThDgXGtXBkyhXb5EhwAEIIApDHwMMFEJXGDKgwAEnCDAudauDDVNYa3DsyVFLUK8DwEIQKAjAb7cwhkVaBmOllQCAQi4S4BzrV1tMIV2+RIdAhCAACuFgY8BJiqBC0x5EICAEwQ419qVoaopbPTQiNYoOfpBAAJFIcB5Mhyl0TIcLakEAhBwlwDnWrvaYArt8iU6BCAAAVYKAx8DTFQCF5jyIAABJwhwrrUrA6bQLl+iQwACEMAUBj4GmKgELjDlQQACThDgXGtXBkyhXb5EhwAEIIApDHwMMFEJXGDKgwAEnCDAudauDJhCu3yJDgEIQABTGPgYYKISuMCUBwEIOEGAc61dGTCFdvkSHQIQgACmMPAxwEQlcIEpDwIQcIIA51q7MmAK7fIlOgQgAAFMYeBjgIlK4AJTHgQg4AQBzrV2ZcAU2uVLdAhAAAKYwsDHABOVwAWmPAhAwAkCnGvtyoAptMuX6BCAAAQwhYGPASYqgQtMeRCAgBMEONfalQFTaJcv0SEAAQhgCgMfA0xUAheY8iAAAScIcK61KwOm0C5fokMAAhDAFAY+BpioBC4w5UEAAk4Q4FxrVwZMoV2+RIcABCCAKQx8DDBRCVxgyoMABJwgwLnWrgyYQrt8iQ4BCEAAUxj4GGCiErjAlAcBCDhBgHOtXRkwhXb5Eh0CEIAApjDwMcBEJXCBKQ8CEHCCAOdauzJgCu3yJToEIAABTGHgY4CJSvYCK6a80hG4fNGydAHoDQHHCHCutSsIptAuX6JDAAIQwBQGPgaYqGQvsGK6Zs2a7AMXJGKnTp0EU1gQsQtUJudau2JjCu3yJToEIAABTGHgY4CJSvYCYwrTMcUUpuNHbzcJcK61qwum0C5fokMAAhDAFAY+BpioZC8wpjAdU0xhOn70dpMA51q7umAK7fIlOgQgAAFMYeBjgIlK9gJjCtMxxRSm40dvNwlwrrWrC6bQLl+iQwACEMAUBj4GmKhkLzCmMB1TTGE6fvR2kwDnWru6YArt8iU6BCAAAUxh4GOAiUr2AmMK0zHFFKbjR283CXCutasLptAuX6JDAAIQwBQGPgaYqGQvMKYwHVNMYTp+9HaTAOdau7pgCu3yJToEIAABTGHgY4CJSvYCYwrTMcUUpuNHbzcJcK61qwum0C5fokMAAhDAFAY+BpioZC8wpjAdU0xhOn70dpMA51q7umAK7fIlOgQgAAFMYeBjgIlK9gJjCtMxxRSm40dvNwlwrrWrC6bQLl+iQwACEMAUBj4GmKhkLzCmMB1TTGE6fvR2kwDnWru6YArt8iU6BCAAAUxh4GOAiUr2AmMK0zHFFKbjR283CXCutasLptAuX6JDAAIQwBQGPgaYqGQvMKYwHVNMYTp+9HaTAOdau7pgCu3yJToEIAABTGHgY4CJSvYCYwrTMcUUpuNHbzcJcK61qwum0C5fokMAAhDAFAY+BpioZC8wpjAdU0xhOn70dpMA51q7umAK7fIlOgQgAAFMYeBjgIlK9gJjCtMxxRSm40dvNwlwrrWrC6bQLl+iQwACEMAUBj4GmKhkLzCmMB1TTGE6fvR2kwDnWru6YArt8iU6BCAAAUxh4GOAiUr2AmMK0zHFFKbjR283CXCutasLptAuX6JDAAIQwBQGPgaYqGQvMKYwHVNMYTp+9HaTAOdau7pgCu3yJToEIAABTGHgY4CJSvYCYwrTMcUUpuNHbzcJcK61qwum0C5fokMAAhDAFAY+BpioZC+wy6bwlltukZEjR8qaNWtk4cKF0tLSIjfffLOMGDFC+vbtK62trTJ48GCZM2dO9mAMI2IKDUHRzCsCnGvtyoUptMuX6BCAAAQwhYGPASYq2QvsiymMV67MmDKLeb8whXkrwPFtEOBca4Pq+piYQrt8iQ4BCEAAUxj4GGCikr3AzTCFepVPrerNnTu3XMSoUaNkxowZbQUpc6VfejVQ/6x79+7l1UC9UqhWD6Mv3f6iiy6S+fPnN3XlEFOY/ZgkYv4EONfa1QBTaJcv0SEAAQhgCgMfA0xUshe42aZQmTtl3iZNmtS20tejRw8ZNmxY2STq9xYsWCCLFy+uePmoMmPKDM6bN68MRfUdMmSIDBgwQCZOnJg9qAoRMYVNQ82BmkiAc61d2JhCu3yJDgEIQABTGPgYYKKSvcDNNIXK6PXr16/t/kD1b/VSK4D6PfVvZRLHjh0rvXr1qmkKVfuLL75YnnnmmXK/pUuXZg+pSkRMYVNxc7AmEeBcaxc0ptAuX6JDAAIQwBQGPgaYqGQvcN6mMLoaqKtTD5Hp37+/DBw4sKYpVA+dUcZMmcoTTjihbA6b+cIUNpM2x2oWAc61dkljCu3yJToEIAABTGHgY4CJSvYC520KVUVpVgqVKVSXjapXz549292nmD2tjhExhc2gzDGaTYBzrV3imEK7fIkOAQhAAFMY+BhgopK9wHmbQnU5aZp7CpUp1Pch6gfOZE+pckRMYTNpc6xmEeBca5c0ptAuX6JDAAIQwBQGPgaYqGQvsAumUFWV9PTR6M/V5aHRfQr1g2aUKVRPN1Wrhep+Qv2k02ZtV4EpzH5MEjF/Apxr7WqAKbTLl+gQgAAEMIWBjwEmKtkL3AxTmH3W7SPGt6JQBrFZG9pjCm2rS/w8CHCutUsdU2iXL9EhAAEIYAoDHwNMVLIX2HdTGN3CQl2Kql6YwuzHCRGLRYBzrV29MYV2+RIdAhCAAKYw8DHARCV7gX03hdkTqS8iK4X18aK1HwQ419rVCVNoly/RIQABCGAKAx8DTFSyFxhTmI4ppjAdP3q7SYBzrV1dMIV2+RIdAhCAAKYw8DHARCV7gTGF6ZhiCtPxo7ebBDjX2tUFU2iXL9EhAAEIYAoDHwNMVLIXGFOYjimmMB0/ertJgHOtXV0whXb5Eh0CEIAApjDwMcBEJXuBi2IKb7nlFhk5cqRkvVUFpjD7MUnE/AlwrrWrAabQLl+iQwACEMAUBj4GmKhkLzCmMB1TTGE6fvR2kwDnWru6YArt8iU6BCAAAUxh4GOAiUr2AmdpCvVqXJ8+faS1tbVtVS66Mb3ahF5vHaE3mldVDR48uLzx/NixY2Xo0KHljep1W90u2rdSzNGjR8vMmTPbQF144YUyceJE0e27d+9e3uQ+qxemMCuSxHGJAOdau2pgCu3yJToEIAABTGHgY4CJSvYC2zCF2oipbHv06CHDhg2TGTNmiN5TUF/CGX1PmznVt5YprBRTm0cdP/pvLh/NfuwQMVwCnGvtaosptMuX6BCAAAQwhYGPASYq2QtswxTqFb0kI6YMnVoN7NWrV4d7/NSqWy1TuHjx4g79dMy4mYzSsmkKs1eFiBDIn8Dli5bln0SgGWAKAxWWsiAAAbcJYCTc1qee7NCyHlpmbZthCuOZjBo1SgYOHGhs7qKXj2pTmBRTrUZq86ff16uWNk0hk2ezsUYrCEBgLQFMISMBAhCAQA4EMBI5QLd0SLTMHqxtUzhu3LjEe/iSTJrpSmGlmHE6SWaSp49mP4aICAEI1EcAU1gfL1pDAAIQyIQARiITjE4EQcvsZbBpClW2+tJO9bAXbQRvvvlmGTFiROL9htEHw+i/6/sN9WWplWK+8sorMm3atDYTyj2F2Y8XIkIAAukJYArTMyQCBCAAgboJYCTqRuZsB7TMXhrbplBlHH1SaPQhNNH31BNL33jjjfL9hspA6ofSqDbqclP1RNFKTx+NxhwyZIjMnTu3DZQ2oNFjZblayNNHsx+TRIRA6AQwhaErTH0QgICTBDASTsrSUFJo2RC2qp2yNIVps4uuAKaN1az+mMJmkeY4EAiHAKYwHC2pBAIQ8IgARsIjsWqkipbZa4kpTMcUU5iOH70hUEQCmMIiqk7NEIBA7gQwErlLkFkCaJkZyrZALpnC7KuzHxFTaJ8xR4BAaAQwhaEpSj0QgIAXBDASXshklCRaGmGqqxGmsC5cHRpjCtPxozcEikgAU1hE1akZAhDInQBGIncJMksALTNDyUphRigxhRmBJAwECkQAU1ggsSkVAhBwhwBGwh0t0maClmkJduyf10qhMlPRJ4PWU1majejTHDcpR0xhPcrRFgIQUAQwhYwDCEAAAjkQwEjkAN3SIdEye7B5mcI0lWAK09CjLwQgkDcBTGHeCnB8CECgkAQwEuHIjpbZa5mVKdRGTe032NraKnovwOgehfF9BpP2EFQVRtupf0djqLj63927d2/bqL7ScfQG9irO4MGDy3sYNrpCmUSflcLsxyQRIRA6AUxh6ApTHwQg4CQBjISTsjSUFFo2hK1qp6xNYXQjebXv4LBhw2TGjBltm9FHzaI2Z9XaRfcuHD16tCxZskS+9a1vyciRI9uMZ63+8RwwhdmPIyJCAALmBDCF5qxoCQEIQCAzAhiJzFDmHggts5cga1OoV/mSLvGMGjx9b5+qKGrw1L91u169enV4T638LV68uO3n1Y4zdOhQaWlpabfyyD2F2Y8hIkIAAvURwBTWx4vWEIAABDIhgJHIBKMTQdAyexlsm8J4xqNGjSqvHMZNYVK7gQMHdjCFql3UCOq/m/ZXhnPq1KkyYsSITGBy+WgmGAkCgUIRwBQWSm6KhQAEXCGAkXBFifR5oGV6hvEINk3huHHj2u75ix83agortav0QJm4KazUX99PWO1exrREMYVpCdIfAsUjgCksnuZUDAEIOEAAI+GACBmlgJYZgYyEsWUK1SGil4tqI6fv54texmnaTt1T+Jvf/Ka80he/p3Ds2LEyceLEtlXE6P2K/fr1kzlz5rTd18g9hdmPIyJCAALmBDCF5qxoCQEIQCAzAhiJzFDmHggts5fApilU2UafChp9CE383r5K7aJPD1Xx4k81TXrKafQ40RzUk1HVa8KECVw+mv1QIiIEIGBIAFNoCIpmEIAABLIkgJHIkma+sdAye/5ZmcJ6Mku6rLOe/i615fJRl9QgFwj4QQBT6IdOZAkBCARGACMRjqBomb2WzTaF6hLQmTNnlvcMVJd0+v7CFPquIPlDoPkEMIXNZ84RIQABCAhGIpxBgJbZa9lsU5h9BflGxBTmy5+jQ8BHAphCH1UjZwhAwHsCGAnvJWwrAC2z1xJTmI4ppjAdP3pDoIgEMIVFVJ2aIQCB3AlgJHKXILME0DIzlO2Mtn5YS/bRw4+IKQxfYyqEQNYEMIVZEyUeBCAAAQMCGAkDSJ40QcvshWKlMB1TTGE6fvSGQBEJYAqLqDo1QwACuRPASOQuQWYJoGVmKFkpzAglpjAjkISBQIEIYAoLJDalQgAC7hDASLijRdpM0DItwY79WSlMxxRTmI4fvSFQRAKYwiKqTs0QgEDuBDASuUuQWQJomRlKVgozQokpzAgkYSBQIAKYwgKJTakQgIA7BDAS7miRNhO0TEuQlcKsCWIKsyZKPAiETwBTGL7GVAgBCDhIACPhoCgNpoSWDYKr0o3LR9MxxRSm40dvCBSRAKawiKpTMwQgkDsBjETuEmSWAFpmhrItEKYwHVNMYTp+9IZAEQlgCouoOjVDAAK5E8BI5C5BZgmgZWYoMYUZocQUZgSSMBAoEAFMYYHEplQIQMAdAhgJd7RImwlapiXYsT8rhemYYgrT8aM3BIpIAFNYRNWpGQIQyJ0ARiJ3CTJLAC0zQ8lKYUYoMYUZgSQMBApEAFNYILEpFQIQcIcARsIdLdJmgpZpCbJSmDVBTGHWRIkHgfAJYArD15gKIQABBwlgJBwUpcGU0LJBcFW6cfloOqaYwnT86A2BIhLAFBZRdWqGAARyJ4CRyF2CzBJAy8xQtgXCFKZjiilMx4/eECgiAUxhEVWnZghAIHcCGIncJcgsAbTMDCWmMCOUmMKMQBIGAgUigCkskNiUCgEIuEMAI+GOFmkzQcu0BDv2Z6UwHVNMYTp+9IZAEQlgCouoOjVDAAK5E8BI5C5BZgmgZWYo/VkpfPddkS23zL7wjCJiCjMCSRgIFIgAprBAYlMqBCDgDgGMhDtapM0ELdMSTF4pzD5qdhEfLIU6KLtwViJdvmiZlbgEhQAEwiSAKQxTV6qCAAQcJ4CRcFygOtJDyzpgBdC086qVMmbA9nLV/Fflwy5bBFARJUAAAhAQwRQyCiAAAQjkQAAjkQN0S4dES0tgHQ074Mop0nLj1fLkiWfKH0+d4GiWpAUBCECgPgKYwvp40RoCEIBAJgQwEplgdCIIWjohQ1OSUKuEpx7QSzb8cLV8tMmmcs1DL7Na2BTyHAQCELBNAFNomzDxIQABCCQQwEiEMyzQMhwta1WiVgl3v/U62fi9lfLxxp3lyVHfY7WwFjTehwAEvCCAKfRCJpKEAARCI4CRCEdRtAxHy2qVRFcJdTtWC4uhPVVCoAgEMIVFUJkaIQAB5whgJJyTpOGE0LJhdF51jK4S6sRZLfRKQpKFAASqEMAUMjwgAAEI5EAAI5EDdEuHREtLYB0KW14l3H8HWbPhBqXLRjeRTVYsl9VdtyrfW9jpk09k+sN/4d5Ch/QiFQhAoH4CmML6mdEDAhCAQGoCGInUCJ0JgJbOSGEtka9Ov1j2uP7n8sQpZ5fvIzxz927y89I+gC03/UIGXHE+TyK1Rp7AEIBAswhgCptFmuNAAAIQiBDASIQzHNAyHC2TKum8aoV86Z4bZcGxp7W9rU2h/kG/m6bLc4cdW1ot7Bo2DKqDAASCJYApDFZaCoMABFwmgJFwWZ36ckPL+niF0DpuCkOoiRogAIFiE8AUFlt/qocABHIigJHICbyFw6KlBaiOh8QUOi4Q6UEAAnUTwBTWjYwOEIAABNITwEikZ+hKBLR0RYnm5YEpbB5rjgQBCDSHAKawOZw5CgQgAIF2BDAS4QwItAxHS9NKMIWmpGgHAQj4QgBT6ItS5AkBCARFACMRjpxoGY6WppVgCk1J0Q4CEPCFAKbQF6XIEwIQCIoARiIcOdEyHC1NK8EUmpKiHQQg4AsBTKEvSpEnBCAQFAGMRDhyomU4WppWgik0JUU7CEDAFwKYQl+UIk8IQCAoAhiJcOREy3C0NK0EU2hKinYQgIAvBDCFvihFnhCAQFAEMBLhyImW4WhpWgmm0JQU7SAAAV8IYAp9UYo8IQCBoAhgJMKREy3D0dK0EkyhKSnaQQACvhDAFPqiFHlCAAJBEcBIhCMnWoajpWklmEJTUrSDAAR8IYAp9EUp8oQABIIigJEIR060DEdL00owhaakaAcBCPhCAFPoi1LkCQEIBEUAIxGOnGgZjpamlWAKTUnRDgIQ8IUAptAXpcgTAhAIigBGIhw50TIcLU0rwRSakqIdBCDgCwFMoS9KkScEIBAUAYxEOHKiZThamlaCKTQlRTsIQMAXAphCX5QiTwhAICgCGIlw5ETLcLQ0rQRTaEqKdhCAgC8EMIW+KEWeEIBAUAQwEuHIiZbhaGlaCabQlBTtIAABXwhgCn1RijwhAIGgCGAkwpETLcPR0rQSTKEpKdpBAAK+EMAU+qIUeUIAAkERwEiEIydahqOlaSWYQlNStIMABHwhgCn0RSnyhAAEgiKAkQhHTrQMR0vTSjCFpqRoBwEI+EIAU+iLUuQJAQgERQAjEY6caBmOlqaVYApNSdEOAhDwhQCm0BelyBMCEAiKAEYiHDnRMhwtTSvBFJqSoh0EIOALAUyhL0qRJwQgEBQBjEQ4cqJlOFqaVoIpNCVFOwhAwBcCmEJflCJPCEAgKAIYiXDkRMtwtDStBFNoSop2EICALwQwhb4oRZ4QgEBQBDAS4ciJluFoaVoJptCUFO0gAAFfCGAKfVGKPCEAgaAIYCTCkRMtw9HStBJMoSkp2kEAAr4QwBT6ohR5QgACQRHASIQjJ1qGo6VpJZhCU1K0gwAEfCGAKfRFKfKEAASCIoCRCEdOtAxHS9NKMIWmpGgHAQj4QgBT6ItS5AkBCARFACMRjpxoGY6WppVgCk1J0Q4CEPCFAKbQF6XIEwIQCIoARiIcOdEyHC1NK8EUmpKiHQQg4AsBTKEvSpEnBCAQFAGMRDhyomU4WppWgik0JUU7CEDAFwKYQl+UIk8IQCAoAhiJcOREy3C0NK0EU2hKinYQgIAvBDCFvihFnhCAQFAEMBLhyImW4WhpWgmm0JQU7SAAAV8IYAp9UYo8IQCBoAhgJMKREy3D0dK0EkyhKSnaQQACvhDAFPqiFHlCAAJBEcBIhCMnWoajpWklmEJTUrSDAAR8IYAp9EUp8oQABIIigJEIR060DEdL00owhaakaAcBCPhCAFPoi1LkCQEIBEUAIxGOnGgZjpamlWAKTUnRDgIQ8IUAptAXpcgTAhAIigBGIhw50TIcLU0rwRSakqIdBCDgCwFMoS9KkScEIBAUAYxEOHKiZThamlaCKTQlRTsIQMAXAphCX5QiTwhAICgCGIlw5ETLcLQ0rQRTaEqKdhCAgC8E2kxhlgl33nRz+fCD97IMSSwIQAACEIAABCDgBIE1pSw6OZEJSUAAAhDIjoA6r625fNGyzCLyW9PMUBIIAhAIlADnyXCERctwtDSthJVCU1K0gwAEfCHA5aO+KEWeEIBAUAQwEuHIiZbhaGlaCabQlBTtIAABXwhgCn1RijwhAIGgCGAkwpETLcPR0rQSTKEpKdpBAAK+EMAU+qIUeUIAAkERwEiEIydahqOlaSWYQlNStIMABHwhgCn0RSnyhAAEgiKAkQhHTrQMR0vTSjCFpqRoBwEI+EIAU+iLUuQJAQgERQAjEY6caBmOlqaVYApNSdEOAhDwhQCm0BelyBMCEAiKAEYiHDnRMhwtTSvBFJqSoh0EIOALAUyhL0qRJwQgEBQBjEQ4cqJlOFqaVoIpNCVFOwhAwBcCmEJflCJPCEAgKAIYiXDkRMtwtDStBFNoSop2EICALwQwhb4oRZ4QgEBQBDAS4ciJluFoaVoJptCUFO0gAAFfCGAKfVGKPCEAgaAIYCTCkRMtw9HStBJMoSkp2kEAAr4QwBT6ohR5QgACQRHASIQjJ1qGo6VpJZhCU1K0gwAEfCGAKfRFKfKEAASCIoCRCEdOtAxHS9NKMIWmpGgHAQj4QgBT6ItS5AkBCARFACMRjpxoGY6WppVgCk1J0Q4CEPCFAKbQF6XIEwIQCIoARiIcOdEyHC1NK8EUmpKiHQQg4AsBTKEvSpEnBCAQFAGMRDhyomU4WppWgik0JUU7CEDAFwKYQl+UIk8IQCAoAhiJcOREy3C0NK0EU2hKinYQgIAvBDCFvihFnhCAQFAEMBLhyImW4WhpWgmm0JQU7SAAAV8IYAp9UYo8IQCBoAhgJMKREy3D0dK0EkyhKSnaQQACvhDAFPqiFHlCAAJBEcBIhCMnWoajpWklmEJTUrSDAAR8IYAp9EUp8oQABIIigJEIR060DEdL00owhaakaAcBCPhCAFPoi1LkCQEIBEUAIxGOnGgZjpamlWAKTUnRDgIQ8IUAptAXpcgTAhAIigBGIhw50TIcLU0rwRSakqIdBCDgCwFMoS9KkScEIBAUAYxEOHKiZThamlaCKTQlRTsIQMAXAphCX5QiTwhAICgCGIlw5ETLcLQ0rQRTaEqKdhCAgC8EMIW+KEWeEIBAUAQwEuHIiZbhaGlaCabQlBTtIAABXwhgCn1RijwhAIGgCGAkwpETLcPR0rQSTKEpKdpBAAK+EMAU+qIUeUIAAkERwEiEIydahqOlaSWYQlNStIMABHwhgCn0RSnyhAAEgiKAkQhHTrQMR0vTSjCFpqRoBwEI+EIAU+iLUuQJgQoE1IeYl58ELl+0zM/EybodAUxh8QYEprB4mlMxBEIngCkMXWHqC54AE9LgJaZAxwnwGXRcIAvpYQotQCUkBCCQKwFMYa74OTgE0hNgQpqeIREgkIYAn8E09Pzsiyn0UzeyhgAEKhPAFDI6IOA5ASakngtI+t4T4DPovYR1F4AprBsZHSAAAccJYAodF4j0IFCLABPSWoR4HwJ2CfAZtMvXxeiYQhdVIScIQCANAUxhGnr0hYADBJiQOiACKRSaAJ/B4smPKSye5lQMgdAJYApDV5j6gifAhDR4iSnQcQJ8Bh0XyEJ6mEILUAkJAQjkSgBTmCt+Dg6B9ASYkKZnSAQIpCHAZzANPT/7Ygr91I2sIQCBygQwhYwOCHhOgAmp5wKSvvcE+Ax6L2HdBWAK60ZGBwhAwHECmELHBSI9CNQiwIS0FiHeh4BdAnwG7fJ1MTqm0EVVyAkCEEhDAFOYhh59IeAAASakDohACoUmwGewePJjCounORVDIHQCmMLQFaa+4AkwIQ1eYgp0nACfQccFspAeptACVEJCAAK5EsAU5oqfg0MgPQEmpOkZEgECaQjwGUxDz8++mEI/dSNrCECgMgFMIaMDAp4TYELquYCk7z0BPoPeS1h3AZjCupHRAQIQcJwAptBxgUgPArUIMCGtRYj3IWCXAJ9Bu3xdjI4pdFEVcoIABNIQwBSmoUdfCDhAgAmpAyKQQqEJ8BksnvyYwuJpTsUQCJ0ApjB0hakveAJMSIOXmAIdJ8Bn0HGBLKSHKbQAlZAQgECuBDCFueLn4BBIT4AJaXqGRIBAGgJ8BtPQ87MvptBP3cgaAhCoTABTyOiAgOcEmJB6LiDpe0+Az6D3EtZdAKawbmR0gAAEHCeAKXRcINKDQC0CTEhrEeJ9CNglwGfQLl8Xo2MKXVSFnCAAgTQEMIVp6NEXAg4QYELqgAikUGgCfAaLJz+msHiaUzEEQieAKQxdYeoLngAT0uAlpkDHCfAZdFwgC+lhCi1AJSQEIJArAUxhrvg5OATSE2BCmp4hESCQhgCfwTT0/Ox5wheHAAAgAElEQVSLKfRTN7KGAAQqE8AUMjog4DkBJqSeC0j63hPgM+i9hHUXgCmsGxkdIAABxwlgCh0XiPQgUIsAE9JahHgfAnYJ8Bm0y9fF6JhCF1UhJwhAIA0BTGEaevSFgAMEmJA6IAIpFJoAn8HiyY8pLJ7mVAyB0AlgCkNXmPqCJ8CENHiJKdBxAnwGHRfIQnqYQgtQCQkBCORKAFOYK34ODoH0BJiQpmdIBAikIcBnMA09P/tiCv3UjawhAIHKBDCFjA4IeE6ACannApK+9wT4DHovYd0FYArrRkYHCEDAcQKYQscFIj0I1CLAhLQWId6HgF0CfAbt8nUxOqbQRVXICQIQSEMAU5iGHn0h4AABJqQOiEAKhSbAZ7B48mMKi6c5FUMgdAKYwtAVpr7gCTAhDV5iCnScAJ9BxwWykB6m0AJUQkIAArkSwBTmip+DQyA9ASak6RkSAQJpCPAZTEPPz76YQj91I2sIQKAyAUwhowMCnhNgQuq5gKTvPQE+g95LWHcBmMK6kdEBAhBwnACm0HGBSA8CtQgwIa1FiPchYJcAn0G7fF2Mjil0URVyggAE0hDAFKahR18IOECACakDIpBCoQnwGSye/JjC4mlOxRAInQCmMHSFqS8oAh+sWiFP3nOT7HvsqW11xSekj970C9nzsONk0y5dg6qdYiDgKgFMoavK2MsLU2iPLZEhAIF8CGAK8+HOUSHQMIG50y+Wh345VYaeMblkDk8TPSGdN/Ny+e21l8iB3/6uDD51QsPx6QgBCNRHAFNYH68QWmMKQ1CRGiAAgSgBTCHjAQKeEVi9aqVM2n8H2ajzJrLBRhvJe8vfkS0+tY18tHq1/Gv1B3LRI3+VTbps4VlVpAsBfwlgCv3VrtHMMYWNkqMfBCDgKgEjU6gaxV+XL1pWsSa+IF2Vm7xCITD7yiky/9brZPV7K2XDkjH8+KOPZKONO8t+x48pryDyggAEmkeA77zmsXblSJhCV5QgDwhAICsCVU3hgvvvlBvPGV3xWMf9ZIa0HHxkh/f5gsxKHuJAIJmAWi0878AvllcG9UutHF74u1dYJWTQQKDJBPjOazJwBw6HKXRABFKAAAQyJVDVFF561N7y2kvPSdz8/X1xq1x2zL6y3U67yVm3P44pzFQSgkHAjEB0tZBVQjNmtIKADQKYQhtU3Y6JKXRbH7KDAATqJ1DVFKo39xp+vBw9eVqHyLdNGStP3H2DJF1Gyhdk/ULQAwL1EoiuFrJKWC892kMgOwJ852XH0pdImEJflCJPCEDAlACm0JQU7SDgIAG1WvjIjVfLfsedzr2EDupDSsUggCkshs7RKjGFxdOciiEQOgFMYegKU1/QBNRq4Tl795SfPL6EewmDVpriXCaAKXRZHTu5YQrtcCUqBCCQH4GaprBWalw+WosQ70PAHoHnH5srM8YeLaOn3Sa77jPY3oGIDAEIVCSAKSze4MAUFk9zKoZA6AQwhaErTH3BEtCGcPz48XLJJZdgDINVmsJcJ4ApdF2h7PPDFGbPlIgQgEC+BIz2Kaw3Rb4g6yVGewjUR0Abwvvuu0+GDh0qs2fPlkMOOQRjWB9GWkMgEwJ852WC0asgmEKv5CJZCEDAgEDDpvC8A3eUlW+/xdNHDSDTBAJZEogbQh0bY5glZWJBwJwAptCcVSgtMYWhKEkdEICAJmBsCvUWFHF03FPIYIJA8whUMoQYw+ZpwJEgECeAKSzemMAUFk9zKoZA6AQavqcwyQxGnWa190OHSn0QsEGgliHEGNqgTkwI1CaAKazNKLQWmMLQFKUeCEDAyBRGDV61TesxhQwoCNghYGoIMYZ2+BMVAtUIYAqLNz4whcXTnIohEDoBI1OYBIGVwtCHBvW5QqBeQ4gxdEU58igKAUxhUZReXyemsHiaUzEEQidgfE/htacfIYt/P68DD+4pDH2IUF+eBBo1hBjDPFXj2EUjgCksmuIimMLiaU7FEAidgLEpjIPg6aOhDw3qy5tAWkOIMcxbQY5fFAKYwqIozUph8ZSmYggUh0DNy0f3Gn68HD15msTvJax2byFfkMUZQFRqh0BWhhBjaEcfokIgSoDvvOKNB1YKi6c5FUMgdAKYwtAVpj7vCGRtCDGG3g0BEvaMAKbQM8EySBdTmAFEQkAAAk4RwBQ6JQfJFJ2ALUOIMSz6yKJ+mwQwhTbpuhkbU+imLmQFAQg0TgBT2Dg7ekIgUwK2DSHGMFO5CAaBNgKYwuINBkxh8TSnYgiETgBTGLrC1OcFgWYZQoyhF8OBJD0jgCn0TLAM0sUUZgCREBCAgFMEaprCWtmyJUUtQrwPgeoEmm0IMYaMSAhkSwBTmC1PH6JhCn1QiRwhAIF6CGAK66FFWwhkTCAvQ4gxzFhIwhWaAKawePJjCounORVDIHQCmMLQFaY+ZwnkbQgxhs4ODRLzjACm0DPBMkgXU5gBREJAAAJOEcAUOiUHyRSFgCuGEGNYlBFHnTYJYApt0nUzNqbQTV3ICgIQaJxAVVMYDVtts/r44fmCbFwQeoZPwDVDiDEMf8xRoV0CfOfZ5etidEyhi6qQEwQgkIYApjANPfpCoE4CrhpCjGGdQtIcAhECmMLiDQdMYfE0p2IIhE4AUxi6wtTnDAHXDSHG0JmhQiKeEcAUeiZYBuliCjOASAgIQMApAphCp+QgmVAJ+GIIMYahjkDqskkAU2iTrpuxMYVu6kJWEIBA4wR40Ezj7OgJASMCUUO4cOFCmTRpUlu/wYMHy5w5c0T9vKWlRUaNGiUzZ84sv3/hhRfKxIkTq753yy23yMiRI6VPnz7S2toqa9asKfft1KlT2zFuvvlmGTFihPTo0UPGjh1bjnnRRReV80hqv2DBAunXr5/Mnj1bDjnkEBk97TbZdZ/BRrXSCAJFJIApLJ7qmMLiaU7FEAidAKYwdIWpL1cC8RVCZda0SdPGTJkw9VKmUJm7Z555RrTZq/Xe4sWLy6ZQG0gVR5m/YcOGyYwZM9rMn4pzzjnnSM+ePcs/HzJkSPmYypAmtddmEWOY6/Dh4J4QwBR6IlSGaWIKM4RJKAhAwAkCRqbwuJ/MkJaDjzROmC9IY1Q0DJhA3BCq1UC1AqdfenUwavy0YVRt+vbtK/3795cxY8aUDWPSewMHDiybQr26F42pj6VXCFXM+fPntxnBqVOnllNR/bUJ1KZSryiqf2MMAx6klJYJAb7zMsHoVRBMoVdykSwEIGBAwOiewkuP2ltee+m5tnDb7bSbnHX74xXD8wVpQJ4mQROodA/h6NGj2y4P1QCiplCbuyRTmPRe3BTqFcaoyYuaS7VCqFYH1f+XLl3atiIZF0NdxqpWFPULYxj0cKW4lAT4zksJ0MPumEIPRSNlCECgKgEjUxiPsOD+O+XGc0aXf3z5omUdDsAXJKOuyAQqGcLoJaFqFa/WSqFe4Rs6dGiHlUL9Xq9evYxXCtW9hOryVWX4lixZUjaHKqdx48aVDWKtF8awFiHeLyoBvvOKpzymsHiaUzEEQidQ0xSqBvr1/Vsflc/17iN/X9wqlx2zL6Yw9NFBfXUTqPaU0fgqnlrBUw+Hia4U6gfPJN1TmPSevqcwuopY6Z5CZUT1MaOXokYfQKOPG30/CgFjWPeQoEMBCGAKCyByrERMYfE0p2IIhE6gqimMXza6xae2lX1GnCz3X/WjMpfeXxsoJ189i5XC0EcJ9RkRMNl2QpsyFVA9HGbatGnlJ4Lq1UBl/ObOnVs+njZmekUx6b346qNONOnpo+o9fflq9PJS9fNo++hDa5IKxxgaDQcaFYgAprBAYq8rFVNYPM2pGAKhE6j5oBlt/B647pI2M6igVHv4DF+QoQ8b6osTMDGE1aglPSBGt6/2Xl5KYAzzIs9xXSTAd56LqtjNCVNoly/RIQCB5hOoaQr3Gn68HD15WrtLRvVlpJXS5Quy+UJyxPwIpDWEKnPfTKHKGWOY35jjyG4R4DvPLT2akQ2msBmUOQYEINBMAnWbwoPHnCuDThpfNUe+IJspIcfKk0AWhjDP/NMeG2OYliD9QyDAd14IKtZXA6awPl60hgAE3CdQtyk02bOQL0j3hSfD9ASKbgg1QYxh+rFEBL8J8J3nt36NZI8pbIQafSAAAZcJ1DSFtZJnS4pahHg/RAIYwvaqYgzX8ziz71aZD/mfP7M885gEzI4ApjA7lr5EwhT6ohR5QgACpgQwhaakaAeBdQQwhMlDAWO4lgumsHinCkxh8TTHFBZPcyqGQOgEau5T2AgAviAboUYfHwiEbAjj+yg2ogfGEFPYyLjxvQ/feb4rWH/+mML6mdEDAhBwm4CRKTzvwB1l5dtvtask6bJR3YAvSLdFJ7vGCIRsCBWRLEyhilN0Y3jx13eSfv36yZw5c9oNtB49epR/PmDAAJk0aVK79/SelBdddFG79/SekVw+2thntlm9+M5rFml3joMpdEcLMoEABLIhUNUU/n1xq1x2zL4Vj1TpoTN8QWYjDlHcIZCVIdTGq0+fPtLa2ip6E/no5vELFiwomwf10ltVqL+rzevVv6Ob3eu2SVtaVIqpN7DXdLXx0O27d+8uS5cuTQW/yMZQXT6qDODUqVNlxIgRZY6K+ZIlS8pGURm/adOmdWAc11CPFWUY39j1P1PpQWe7BPjOs8vXxeiYQhdVIScIQCANgaqm8NKj9pbXXnquw0b1eiP77XbaTc66/fEOx+cLMo0k9HWNQFaGUNWlJ/raiKmfKQMxbNgwmTFjRtkwqFUkbRaj72kzp/oOHTpUWlpapJIprBRTGw8dP/rvrFYKtX5FNYbKFCqW48aNKxu/OPNKprAaf1YKXTsrtM+H7zy39bGRHabQBlViQgACeRKo+aCZ3l8bKCdfPatDjteefoQs/v084emjecrHsW0TeO6ROTLzu8fI5MmT5fzzz099OD3x12YuyQgoQ6dWA3v16iUjR45sM4jq4Go1r5YpXLx4cYd+OmbcTEYLytoUqtiK2ZQpU1Jz8ymANtzKxKvXU089JRMmTGhbNYxfIhpdmY2u4upLSrXuPjEoYq7VbqkoIo/Qa8YUhq4w9UGgeAQwhcXTnIrrJGBjpTBuCuMpjRo1SgYOHGhs7qKXHmpTmBRTrUZq86ff16uWWZvCIq8UarZ9+/aV/v37l1eB9avSSmFUr+hlw2qsPLzBDnWOWppDAAI2CWAKbdIlNgQgkAcBo8tHDx5zrgw6aXxbflw+modUHDNPAlkZw6SVQn2ZYby+JJNmulJYKWb8GElmUq90peFdVEOomEW3pGjUFGr2+jLg3cZelkYO+kIAAhkTwBRmDJRwEIBA7gSqmsIF998pN56z9hKopBcPmsldPxJoIoEsjGHcFKr09aWdEydObFvF05cOJt0bGH0wjP67vuxQr0BWivnKK6+0e8iJjXsKi2wI05jCuIZ6bKgH1vCgmSZ+0DkUBAwIYAoNINEEAhDwioDRlhSqUfzFlhRe6UyyGRFIawyTTKFKLfqk0OhDaKLvqSeWvvHGG+X7DZWBjN6bpi43nTlzZtuDZ6rFHDJkiMydO7eNSNK9a42uFhbdEJqawviWFFrzuDZKV3XpKQ+ayegDTBgIZEQAU5gRSMJAAALOEKh5T+Few4+XoydPqythnsRWFy4ae0YgrTFMU250BTBNHBt9MYRrqUYvH82KM6YwK5LEgUA2BDCF2XAkCgQg4A4BTKE7WpCJRwTyMoaumkIM4frBiyn06INMqhBokACmsEFwdIMABJwlgCl0VhoSc51AXsbQNS4YQtcUIR8IQMA2AUyhbcLEhwAEmk2gpimslRD7FNYixPshEyi6McQQhjy6qQ0CEKhEAFPI2IAABEIjgCkMTVHqaTqBohpDDGHThxoHhAAEHCGAKXRECNKAAAQyI1DTFPKgmcxYEyhgAs02htHNzRXW+BNLbaPGENomTHwIQMBlAphCl9UhNwhAoBECmMJGqNEHAgkEmmkM1RYWeiuJSttc2BIJQ2iLLHEhAAFfCGAKfVGKPCEAAVMCNfcpvG3KWHn1uQVy1u2Pt8VUnQ4ec64MOml84nHYksIUP+1CI9AMY6j2J7zjjjvkmWeeacOn9rcbMOD/tXcHIXZdZRzAT0V0oSAIUqmuBEuwkNBsCq3twiK2CxdFaTrF0kVrF0ogoi6CYIhQsmhrA0O7sNm1NFZaujOFooig0E3aBCqhkp0tBEEquFGEtHfkxclMZu5935x73jf3/mYT69xz7nd+3+Vw/rw373194/sLx/wRCMfUNTcBAvtFQCjcL51SJwECQwV2DYVdIHzr9RfLZz//hfKL3/91Y87z514tLx1/fON/7xQMhcKh/K6bokCLYLjVrfuqitOnT5e1tbXRSAXC0WhNTIDAPhMQCvdZw5RLgECvwK6h8Off+Gr51z/+XrZ+wuj7ly6WZx6657qwuPlOQmGvuwsmLtAyGHZvJX3sscfKmTNnRlMVCEejNTEBAvtQQCjch01TMgECuwqE/6Zw8Sqir6TwhBG4sUCLYNjiy+wFQk84AQIErhcQCj0RBAhMTaA3FB64897yxPOvbVv3r37wnXLpz7/b9ipid6FXCqf2mFhPVGDMYNh9Amn3t4RXrlyJltc7TiDsJXIBAQIzFBAKZ9h0SyYwcYFdQ+Ei+G3928E3X3iqnHvuyXLLrbdd9wE0CyuhcOJPjeUtJTBmMFyqkCUvFgiXBHM5AQKzERAKZ9NqCyUwG4FdQ+Hibwd30vjxr/9YvnTg4LZfC4WzeX4sdKDAGMFwzFcKBcKBjXUZAQKzFBAKZ9l2iyYwaYHer6ToVr/4wJmFxOZPI72RjlA46WfG4oICYwTDYCm7DhMIx1A1JwECUxIQCqfUTWshQKAT6P2bwjseeKQcObFetn6wjA+a8QARWF4gezAUCJfvqREECMxPQCicX8+tmMDUBYTCqXfY+tIJZA2GAmG6R0VBBAgkFRAKkzZGWQQIhAWEwjCdgQTiAtmCoUAY76WRBAjMT0AonF/PrZjA1AWEwql32PrSCmQJhgJh2kdEYQQIJBUQCpM2RlkECIQFhMIwnYEE9i6w6mAoEO69h2YgQGB+AkLh/HpuxQSmLtAbCvsAfvnOh9su8emjfWp+T+D/AqsKhgKhp5AAAQIxAaEw5mYUAQJ5BYTCvL1R2YwEWgdDgXBGD5elEiBQXUAorE5qQgIEVizQ+z2F3QWLn8WX1W/+UnuvFK64g24/GYFWwVAgnMwjYyEECKxIQChcEbzbEiAwmsCuofDpB+8qH7z37rWbd19af/faE+Xcc09u/H8H7ry3PPH8a9uK8/bR0fpl4okLjB0MBcKJP0CWR4BAEwGhsAmzmxAg0FCg9+2ji+D35gtPXQuDXX3fO3WmHL7/uzcsVShs2EG3mpzAWMFQIJzco2JBBAisSEAoXBG82xIgMJpAbyi844FHypET62XzW0YXbyPdqSqhcLR+mXgmArWDoUA4kwfHMgkQaCIgFDZhdhMCBBoKLB0K7//hz8o3v//TXUsUCht20K0mK1ArGAqEk31ELIwAgRUJCIUrgndbAgRGE1g6FO72ttFFlULhaP0y8cwE9hoMBcKZPTCWS4BAEwGhsAmzmxAg0FCgNxT21eLTR/uE/J7A3gSiwVAg3Ju70QQIENhJQCj0bBAgMDUBoXBqHbWeSQosGwwFwkk+BhZFgEASAaEwSSOUQYBANYHe7ymM3MnbRyNqxhDYXWBoMBQIPUkECBAYV0AoHNfX7AQItBfwSmF7c3ckEBboC4YCYZjWQAIECAwWEAoHU7mQAIF9IiAU7pNGKZPAQmCnYCgQekYIECDQRkAobOPsLgQItBMY9PbR7qKtPzf6gJnFNd4+2q6B7jRPga3BUCCc53Ng1QQIrEZAKFyNu7sSIDCewK6h8Py5V8tLxx/f8e47fT2FUDhew8xMYOsrhidOnCgnT54sj6+/Ur5297cAESBAgMDIAkLhyMCmJ0CgucCuofDpB+8qH7z3btka/t6/dLE889A95ZZbbys/+c2fthUtFDbvoxvOVKB7xfDLR4+UvwmEM30CLJsAgVUICIWrUHdPAgTGFOj9m8I7HnikHDmxvq2GV04eLW+9/mLxPYVjtsfcBPoFHE76jVxBgACBmgL23Zqa5iJAIIOAUJihC2ogsAcBh5M94BlKgACBgIB9N4BmCAECqQWEwtTtURyBfgGHk34jVxAgQKCmgH23pqa5CBDIINAbCvuK9PbRPiG/JzCugMPJuL5mJ0CAwFYB+65nggCBqQkIhVPrqPXMTsDhZHYtt2ACBFYsYN9dcQPcngCB6gKDvqdw2bv69NFlxVxPIC7gcBK3M5IAAQIRAftuRM0YAgQyCwiFmbujNgIDBBxOBiC5hAABAhUF7LsVMU1FgEAKAaEwRRsUQSAu4HAStzOSAAECEQH7bkTNGAIEMgsIhZm7ozYCAwQcTgYguYQAAQIVBey7FTFNRYBACgGhMEUbFEEgLuBwErczkgABAhEB+25EzRgCBDILCIWZu6M2AgMEHE4GILmEAAECFQXsuxUxTUWAQAoBoTBFGxRBIC7gcBK3M5IAAQIRAftuRM0YAgQyCwiFmbujNgIDBBxOBiC5hAABAhUF7LsVMU1FgEAKAaEwRRsUQSAu4HAStzOSAAECEQH7bkTNGAIEMgsIhZm7ozYCAwQcTgYguYQAAQIVBey7FTFNRYBACgGhMEUbFEEgLuBwErczkgABAhEB+25EzRgCBDILCIWZu6M2AgMEHE4GILmEAAECFQXsuxUxTUWAQAoBoTBFGxRBIC7gcBK3M5IAAQIRAftuRM0YAgQyCwiFmbujNgIDBBxOBiC5hAABAhUF7LsVMU1FgEAKAaEwRRsUQSAu4HAStzOSAAECEQH7bkTNGAIEMgsIhZm7ozYCAwQcTgYguYQAAQIVBey7FTFNRYBACgGhMEUbFEEgLuBwErczkgABAhEB+25EzRgCBDILCIWZu6M2AgMEHE4GILmEAAECFQXsuxUxTUWAQAoBoTBFGxRBIC7gcBK3M5IAAQIRAftuRM0YAgQyCwiFmbujNgIDBBxOBiC5hAABAhUF7LsVMU1FgEAKAaEwRRsUQSAu4HAStzOSAAECEQH7bkTNGAIEMgsIhZm7ozYCAwQcTgYguYQAAQIVBey7FTFNRYBACgGhMEUbFEEgLuBwErczkgABAhEB+25EzRgCBDILCIWZu6M2AgMEHE4GILmEAAECFQXsuxUxTUWAQAoBoTBFGxRBIC7gcBK3M5IAAQIRAftuRM0YAgQyCwiFmbujNgIDBBxOBiC5hAABAhUF7LsVMU1FgEAKAaEwRRsUQSAu4HAStzOSAAECEQH7bkTNGAIEMgsIhZm7ozYCAwQcTgYguYQAAQIVBey7FTFNRYBACgGhMEUbFEEgLuBwErczkgABAhEB+25EzRgCBDILCIWZu6M2AgMEHE4GILmEAAECFQXsuxUxTUWAQAoBoTBFGxRBIC7gcBK3M5IAAQIRAftuRM0YAgQyCwiFmbujNgIDBBxOBiC5hAABAhUF7LsVMU1FgEAKAaEwRRsUQSAu4HAStzOSAAECEQH7bkTNGAIEMgsIhZm7ozYCAwQcTgYguYQAAQIVBey7FTFNRYBACgGhMEUbFEEgLuBwErczkgABAhEB+25EzRgCBDILCIWZu6M2AgMEHE4GILmEAAECFQXsuxUxTUWAQAoBoTBFGxRBIC7gcBK3M7KdwI8OfS58s2cv/DM81kACYwjYd8dQNScBAqsUEApXqe/eBCoIOJxUQDTF6AJC4ejEbtBQwL7bENutCBBoIiAUNmF2EwLjCTicjGdr5noCQmE9SzOtXsC+u/oeqIAAgboCQmFdT7MRaC7QHU78EMgucPbll8vDDz9cXv7437W1tY1yb7755nL69Olr/33o0KFy8eLFjd8dPHiwXLhw4X/Luumm7MtT3wwFnn3nwxmu2pIJEJiqgFA41c5aFwECBBIJfPEvv90IhZvD3uZQ2AXC7mcRBDf/t78pTNRIpRAgQIDAJAWEwkm21aIIECCQS6ALhceOHSu33357efTRRzdeHVyEwq7SLjBevXr1WtFvv/12OXz4cDl//nz5wye+kmsxqiFAgAABAhMTEAon1lDLIUCAQEaBRSh84403yvHjx0v37yIUXr58uayvr5crV65cV3r3+6NHj5bPfPtoxiWpiQABAgQITEZAKJxMKy2EAAECeQUWobALfvfdd185derUxr/d3xQKhXn7pjICBAgQmIeAUDiPPlslAQIEViqwORR2bw3tXi3s/u1C4YEDBzbeKrr57aNdsTd9/AEz3j660ra5OQECBAjMREAonEmjLZMAAQKrFNgcCrs6Fp80uvg0Uh80s8ruuDcBAgQIzF1AKJz7E2D9BAgQaCCwNRSePXt221dU7PSVFD59tEGD3IIAAQIEZi0gFM66/RZPgACBNgK+vL6Ns7sQIECAAIGIgFAYUTOGAAECBJYSEAqX4nIxAQIECBBoKiAUNuV2MwIECBAgQIAAAQIECOQSEApz9UM1BAgQIECAAAECBAgQaCogFDbldjMCBAgQIECAAAECBAjkEhAKc/VDNQQIECBAgAABAgQIEGgqIBQ25XYzAgQIECBAgAABAgQI5BIQCnP1QzUECBAgQIAAAQIECBBoKiAUNuV2MwIECBAgQIAAAQIECOQSEApz9UM1BAgQIECAAAECBAgQaCogFDbldjMCBAgQIECAAAECBAjkEhAKc/VDNQQIECBAgAABAgQIEGgqIBQ25XYzAgQIECBAgAABAgQI5BIQCnP1QzUECBAgQIAAAQIECBBoKiAUNuV2MwIECBAgQIAAAQIECOQSEApz9UM1BAgQIECAAAECBAgQaCogFDbldjMCBAgQIECAAAECBAjkEhAKc/VDNQQIECBAgAABAgQIEGgqIBQ25XYzAgQIECBAgAABAgQI5MuYhVUAAABlSURBVBIQCnP1QzUECBAgQIAAAQIECBBoKiAUNuV2MwIECBAgQIAAAQIECOQSEApz9UM1BAgQIECAAAECBAgQaCpwLRTWvOsnP/Xp8t///LvmlOYiQIAAAQIECBAgQIAAgZEEPgL7slHeetdgQQAAAABJRU5ErkJggg==;" parent="1" vertex="1">
          <mxGeometry x="-800" y="-20" width="901" height="601" as="geometry" />
        </mxCell>
      </root>
    </mxGraphModel>
  </diagram>
  <diagram id="Fej3b12t6PCD6JZZC272" name="Page-2">
    <mxGraphModel grid="1" page="1" gridSize="10" guides="1" tooltips="1" connect="1" arrows="1" fold="1" pageScale="1" pageWidth="850" pageHeight="1100" math="0" shadow="0">
      <root>
        <mxCell id="0" />
        <mxCell id="1" parent="0" />
      </root>
    </mxGraphModel>
  </diagram>
</mxfile>
